<svg width="40" height="40" viewBox="0 0 40 40" fill="none" xmlns="http://www.w3.org/2000/svg">
<rect width="40" height="40" rx="20" fill="#FFD9C3"/>
<path d="M12.5625 10.5625H13.625C13.9068 10.5625 14.177 10.6744 14.3763 10.8737C14.5756 11.073 14.6875 11.3432 14.6875 11.625V13.75H17.875V11.625C17.875 11.3432 17.9869 11.073 18.1862 10.8737C18.3855 10.6744 18.6557 10.5625 18.9375 10.5625H21.0625C21.3443 10.5625 21.6145 10.6744 21.8138 10.8737C22.0131 11.073 22.125 11.3432 22.125 11.625V13.75H25.3125V11.625C25.3125 11.3432 25.4244 11.073 25.6237 10.8737C25.823 10.6744 26.0932 10.5625 26.375 10.5625H27.4375C27.7193 10.5625 27.9895 10.6744 28.1888 10.8737C28.3881 11.073 28.5 11.3432 28.5 11.625V16.2936C28.5001 16.7134 28.3759 17.1238 28.143 17.473L26.732 19.5895C26.4991 19.9387 26.3749 20.3491 26.375 20.7689V28.625C26.375 28.9068 26.2631 29.177 26.0638 29.3763C25.8645 29.5756 25.5943 29.6875 25.3125 29.6875H14.6875C14.4057 29.6875 14.1355 29.5756 13.9362 29.3763C13.7369 29.177 13.625 28.9068 13.625 28.625V20.7689C13.6251 20.3491 13.5009 19.9387 13.268 19.5895L11.857 17.473C11.6241 17.1238 11.4999 16.7134 11.5 16.2936V11.625C11.5 11.3432 11.6119 11.073 11.8112 10.8737C12.0105 10.6744 12.2807 10.5625 12.5625 10.5625Z" stroke="#1C2F24" stroke-width="1.1" stroke-linecap="round" stroke-linejoin="round"/>
<path d="M17.875 29.6875V24.375C17.875 23.8114 18.0989 23.2709 18.4974 22.8724C18.8959 22.4739 19.4364 22.25 20 22.25C20.5636 22.25 21.1041 22.4739 21.5026 22.8724C21.9011 23.2709 22.125 23.8114 22.125 24.375V29.6875" stroke="#1C2F24" stroke-width="1.1" stroke-linecap="round" stroke-linejoin="round"/>
</svg>
