<svg width="225" height="87" viewBox="0 0 225 87" fill="none" xmlns="http://www.w3.org/2000/svg">
<path d="M0 52.6047V0H12.6136H25.2273V2.69767H38.8636V12.814L75.6818 20.2326V29.6744V87H38.8636V76.2093C36.1364 76.2093 27.6245 77.3437 19.0909 75.5349C9.54545 73.5116 5.22727 64.0698 3.40909 58H21.1364V52.6047H0Z" fill="#1C2F24" fill-opacity="0.4"/>
<path d="M0 52.6047V0H12.6136H25.2273V2.69767H38.8636V12.814L75.6818 20.2326V29.6744V87H38.8636V76.2093C36.1364 76.2093 27.6245 77.3437 19.0909 75.5349C9.54545 73.5116 5.22727 64.0698 3.40909 58H21.1364V52.6047H0Z" fill="#1C2F24" fill-opacity="0.4"/>
<path d="M225.002 38.4418V86.9999H143.184V29.6743H182.047L225.002 38.4418Z" fill="#1C2F24" fill-opacity="0.4"/>
<path d="M75.6836 29.6743V86.9999L143.184 86.9999V29.6743L75.6836 29.6743Z" fill="#FFD9C3" fill-opacity="0.5"/>
<path d="M225.004 38.4419V87L143.185 86.9998V29.6742L182.049 29.6745L225.004 38.4419Z" fill="#1C2F24" fill-opacity="0.4"/>
<path d="M45.016 49L43.536 49L42.624 46.304L37.704 46.304L36.8 49L35.32 49L39.176 37.48L41.16 37.48L45.016 49ZM40.152 38.976L38.152 44.968L42.176 44.968L40.152 38.976Z" fill="#FFD9C3"/>
<path d="M109.592 58.904C110.173 59.1493 110.624 59.5173 110.944 60.008C111.269 60.4987 111.432 61.064 111.432 61.704C111.432 62.3707 111.293 62.952 111.016 63.448C110.739 63.944 110.341 64.328 109.824 64.6C109.312 64.8667 108.707 65 108.008 65L103.12 65L103.12 53.48L107.608 53.48C108.275 53.48 108.853 53.6187 109.344 53.896C109.84 54.1733 110.219 54.544 110.48 55.008C110.747 55.472 110.88 55.9733 110.88 56.512C110.88 57.0347 110.765 57.5067 110.536 57.928C110.312 58.344 109.997 58.6693 109.592 58.904ZM104.56 54.824L104.56 58.288L107.592 58.288C107.933 58.288 108.243 58.216 108.52 58.072C108.797 57.9227 109.016 57.7147 109.176 57.448C109.336 57.176 109.416 56.864 109.416 56.512C109.416 56.1867 109.339 55.896 109.184 55.64C109.029 55.384 108.813 55.184 108.536 55.04C108.264 54.896 107.949 54.824 107.592 54.824L104.56 54.824ZM107.736 63.64C108.163 63.64 108.544 63.5627 108.88 63.408C109.221 63.248 109.488 63.0213 109.68 62.728C109.872 62.4347 109.968 62.0907 109.968 61.696C109.968 61.312 109.88 60.9627 109.704 60.648C109.528 60.3333 109.283 60.0853 108.968 59.904C108.653 59.7227 108.296 59.632 107.896 59.632L104.56 59.632L104.56 63.64L107.736 63.64Z" fill="#1C2F24"/>
<path d="M181.856 65.24C180.731 65.24 179.763 64.9893 178.952 64.488C178.147 63.9867 177.533 63.2853 177.112 62.384C176.691 61.4773 176.48 60.4293 176.48 59.24C176.48 58.0507 176.691 57.0053 177.112 56.104C177.533 55.1973 178.147 54.4933 178.952 53.992C179.763 53.4907 180.731 53.24 181.856 53.24C182.731 53.24 183.509 53.392 184.192 53.696C184.875 54 185.445 54.4347 185.904 55C186.368 55.56 186.709 56.224 186.928 56.992L185.48 57.376C185.24 56.496 184.813 55.8133 184.2 55.328C183.587 54.8427 182.805 54.6 181.856 54.6C181.013 54.6 180.301 54.7947 179.72 55.184C179.139 55.5733 178.704 56.12 178.416 56.824C178.128 57.528 177.984 58.3493 177.984 59.288C177.984 60.2107 178.131 61.016 178.424 61.704C178.717 62.392 179.152 62.928 179.728 63.312C180.309 63.6907 181.019 63.88 181.856 63.88C182.805 63.88 183.587 63.6373 184.2 63.152C184.813 62.6667 185.24 61.984 185.48 61.104L186.928 61.488C186.709 62.256 186.368 62.9227 185.904 63.488C185.445 64.048 184.875 64.48 184.192 64.784C183.509 65.088 182.731 65.24 181.856 65.24Z" fill="#FFD9C3"/>
</svg>
