<svg width="40" height="40" viewBox="0 0 40 40" fill="none" xmlns="http://www.w3.org/2000/svg">
<rect width="40" height="40" rx="20" fill="#FFD9C3"/>
<g clip-path="url(#clip0_1015_529)">
<path d="M31.5999 26.8002C31.8208 26.8002 31.9999 26.6211 31.9999 26.4002C31.9999 26.1793 31.8208 26.0003 31.5999 26.0003H31.1999C31.1999 25.7794 31.0209 25.6003 30.7999 25.6003C30.579 25.6003 30.4 25.7794 30.4 26.0003H24C24 25.7794 23.8209 25.6003 23.6001 25.6003C23.3791 25.6003 23.2001 25.7794 23.2001 26.0003H22.8001C22.5792 26.0003 22.4001 26.1794 22.4001 26.4002C22.4001 26.6212 22.5792 26.8002 22.8001 26.8002H23.2001V28.0002H22.8001C22.5792 28.0002 22.4001 28.1793 22.4001 28.4002C22.4001 28.6211 22.5792 28.8002 22.8001 28.8002H23.2001V29.2001H22.8001C22.5792 29.2001 22.4001 29.3792 22.4001 29.6001C22.4001 29.821 22.5792 30.0001 22.8001 30.0001H23.2001V31.2001H16.4001V27.8908C16.9918 28.2242 17.6594 28.3996 18.3386 28.4001C20.6101 28.3674 22.4267 26.5027 22.4 24.2311C22.4124 22.6517 21.5304 21.2012 20.1225 20.4854C20.586 19.8544 20.8343 19.0911 20.8309 18.3081C20.8448 16.5802 19.6327 15.0845 17.9394 14.7402C18.3678 13.7953 18.2942 12.6986 17.7432 11.8195C17.1922 10.9403 16.2373 10.3959 15.2001 10.3696C15.1883 10.3696 15.1768 10.3713 15.165 10.3714C14.9521 8.99488 13.7593 7.98446 12.3664 8.00068C10.9736 8.0169 9.80471 9.05488 9.62387 10.436C8.61101 10.6302 7.91179 11.5627 8.00924 12.5894C8.1067 13.6162 8.9689 14.4004 10.0003 14.4005H12.3318C12.3679 14.5155 12.4107 14.6283 12.46 14.7383C10.7667 15.0838 9.5552 16.5801 9.5694 18.3082C9.56598 19.0911 9.81432 19.8545 10.2778 20.4855C8.8699 21.2013 7.98796 22.6518 8.00029 24.2311C7.97357 26.5027 9.79023 28.3675 12.0618 28.4002C12.7409 28.3997 13.4085 28.2243 14.0002 27.8908V31.2001H8.40032C8.1794 31.2001 8.00034 31.3792 8.00034 31.6001C8.00034 31.821 8.1794 32.0001 8.40032 32.0001H31.5999C31.8208 32.0001 31.9999 31.821 31.9999 31.6001C31.9999 31.3792 31.8208 31.2001 31.5999 31.2001H31.1999V30.0001H31.5999C31.8208 30.0001 31.9999 29.8211 31.9999 29.6002C31.9999 29.3792 31.8208 29.2002 31.5999 29.2002H31.1999V28.8002H31.5999C31.8208 28.8002 31.9999 28.6211 31.9999 28.4002C31.9999 28.1793 31.8208 28.0003 31.5999 28.0003H31.1999V26.8003L31.5999 26.8002ZM12.1848 13.4622C12.1848 13.5086 12.19 13.5543 12.1921 13.6005H10.0003C9.33756 13.6005 8.80029 13.0632 8.80029 12.4005C8.80029 11.7377 9.33756 11.2005 10.0003 11.2005C10.1063 11.2005 10.2081 11.1584 10.2832 11.0834C10.3582 11.0084 10.4003 10.9066 10.4003 10.8005C10.3982 9.75659 11.2009 8.88745 12.2416 8.80654C13.2824 8.72559 14.2097 9.46025 14.369 10.4919C13.0644 10.8904 12.1763 12.0981 12.1848 13.4622ZM15.6002 31.2002H14.8002V27.3028C14.9435 27.1693 15.0772 27.0258 15.2002 26.8733C15.3231 27.0258 15.4568 27.1693 15.6001 27.3028L15.6002 31.2002ZM15.6488 26.1173L18.2829 23.4831C18.4367 23.3265 18.4356 23.0752 18.2804 22.92C18.1253 22.7648 17.874 22.7637 17.7174 22.9175L15.6002 25.0346V20.9659L17.4829 19.0832C17.6374 18.9267 17.6367 18.6749 17.4812 18.5193C17.3257 18.3639 17.0738 18.3631 16.9173 18.5176L15.6001 19.8347V18.0004C15.6001 17.7795 15.421 17.6004 15.2002 17.6004C14.9792 17.6004 14.8002 17.7795 14.8002 18.0004V19.8347L13.483 18.5176C13.3266 18.3631 13.0747 18.3639 12.9192 18.5193C12.7636 18.6748 12.7629 18.9267 12.9174 19.0832L14.8001 20.966V25.0347L12.683 22.9175C12.5265 22.763 12.2747 22.7638 12.1191 22.9193C11.9636 23.0748 11.9628 23.3267 12.1173 23.4831L14.7515 26.1173C14.1659 27.0374 13.1523 27.5962 12.0617 27.6002C10.2318 27.568 8.77301 26.0611 8.8002 24.2311C8.78323 22.784 9.69793 21.4897 11.0677 21.0226C11.2002 20.979 11.3003 20.8695 11.332 20.7337C11.3637 20.5979 11.3223 20.4555 11.2228 20.3577C10.673 19.818 10.3651 19.0786 10.3694 18.3082C10.3432 16.7819 11.5503 15.5188 13.0762 15.4758C13.2413 15.4904 13.3991 15.4049 13.4771 15.2586C13.5453 15.1241 13.532 14.9628 13.4426 14.8414C13.1461 14.4426 12.9856 13.9591 12.9848 13.4621C12.9653 12.218 13.9561 11.1927 15.2001 11.1696C16.4442 11.1927 17.435 12.218 17.4155 13.4621C17.4146 13.9591 17.2541 14.4426 16.9577 14.8414C16.8701 14.9638 16.8591 15.1251 16.9294 15.2582C17 15.3933 17.14 15.4777 17.2924 15.4773C18.8294 15.505 20.0542 16.7711 20.0309 18.3082C20.0351 19.0786 19.7272 19.818 19.1774 20.3577C19.0779 20.4555 19.0366 20.5979 19.0683 20.7337C19.1 20.8695 19.2001 20.979 19.3325 21.0226C20.8688 21.5598 21.8053 23.1142 21.5621 24.7234C21.3189 26.3326 19.965 27.541 18.3386 27.6002C17.248 27.5962 16.2344 27.0374 15.6488 26.1173ZM30.3999 31.2002H24V30.0002H30.3999V31.2002ZM30.3999 29.2002H24V28.8002H30.3999V29.2002ZM30.3999 28.0002H24V26.8002H30.3999V28.0002Z" fill="#1C2F24" stroke="#1C2F24" stroke-width="0.1"/>
<path d="M24.2 18H28.9999C30.0313 17.9999 30.8935 17.2157 30.991 16.1889C31.0884 15.1622 30.3892 14.2297 29.3763 14.0356C29.1933 12.642 28.0055 11.6001 26.6 11.6001C25.1945 11.6001 24.0067 12.642 23.8237 14.0356C22.8108 14.2297 22.1116 15.1622 22.209 16.1889C22.3065 17.2157 23.1687 17.9999 24.2 18ZM24.2 14.8C24.3061 14.8001 24.4079 14.7579 24.4829 14.6829C24.5579 14.6079 24.6001 14.5061 24.6001 14.4C24.6001 13.2954 25.4955 12.4 26.6 12.4C27.7046 12.4 28.6 13.2954 28.6 14.4C28.6 14.5061 28.6421 14.6078 28.7172 14.6829C28.7922 14.7579 28.8939 14.8 29 14.8C29.6628 14.8 30.2 15.3373 30.2 16C30.2 16.6627 29.6628 17.2 29 17.2H24.2001C23.5374 17.2 23.0001 16.6627 23.0001 16C23.0001 15.3372 23.5373 14.8 24.2 14.8Z" fill="#1C2F24" stroke="#1C2F24" stroke-width="0.1"/>
</g>
<defs>
<clipPath id="clip0_1015_529">
<rect width="24" height="24" fill="white" transform="translate(8 8)"/>
</clipPath>
</defs>
</svg>
