<svg width="40" height="40" viewBox="0 0 40 40" fill="none" xmlns="http://www.w3.org/2000/svg">
<rect width="40" height="40" rx="20" fill="#FFD9C3"/>
<path d="M24 18V14C24 12.9391 23.5786 11.9217 22.8284 11.1716C22.0783 10.4214 21.0609 10 20 10C18.9391 10 17.9217 10.4214 17.1716 11.1716C16.4214 11.9217 16 12.9391 16 14V18M11 15V26C11 27.0609 11.4214 28.0783 12.1716 28.8284C12.9217 29.5786 13.9391 30 15 30H25C26.0609 30 27.0783 29.5786 27.8284 28.8284C28.5786 28.0783 29 27.0609 29 26V15H11Z" stroke="#1C2F24" stroke-width="1.2" stroke-linecap="round" stroke-linejoin="round"/>
</svg>
