<svg width="102" height="99" viewBox="0 0 102 99" fill="none" xmlns="http://www.w3.org/2000/svg">
<path d="M50.4905 78.8379L50.9998 79.8565L51.5091 78.8379L56.0927 69.6708C72.8625 67.207 85.7359 52.7596 85.7359 35.3054C85.7359 16.1212 70.184 0.569336 50.9998 0.569336C31.8155 0.569336 16.2637 16.1212 16.2637 35.3054C16.2637 52.7596 29.137 67.207 45.9069 69.6708L50.4905 78.8379Z" fill="#FAF7F2"/>
<path d="M46.3507 21.6387H39.75V47.8331H46.3507V21.6387Z" fill="#07412E"/>
<path d="M58.1831 27.1519V34.0847H55.3101V47.832H61.9108V27.1519H58.1831Z" fill="#07412E"/>
<path d="M50.4038 34.0847H47.5308V47.832H54.1315V27.1519H50.4038V34.0847Z" fill="#07412E"/>
<path d="M7.68029 89.4718C7.61144 88.8904 7.33222 88.4391 6.84263 88.1178C6.35304 87.7965 5.75252 87.6358 5.04108 87.6358C4.52089 87.6358 4.06573 87.72 3.67558 87.8883C3.28927 88.0566 2.9871 88.288 2.76908 88.5825C2.55488 88.877 2.44778 89.2117 2.44778 89.5865C2.44778 89.9002 2.52237 90.1698 2.67154 90.3955C2.82454 90.6173 3.01961 90.8029 3.25675 90.952C3.4939 91.0974 3.74252 91.2179 4.00262 91.3135C4.26271 91.4053 4.50177 91.4799 4.71979 91.5372L5.91317 91.8585C6.21916 91.9389 6.55958 92.0498 6.93442 92.1913C7.31309 92.3328 7.67455 92.526 8.01879 92.7708C8.36686 93.0118 8.65373 93.3216 8.8794 93.7002C9.10507 94.0789 9.21791 94.5436 9.21791 95.0944C9.21791 95.7294 9.05152 96.3031 8.71876 96.8156C8.38981 97.3282 7.90787 97.7355 7.27293 98.0377C6.64182 98.3399 5.87492 98.491 4.97224 98.491C4.13075 98.491 3.4021 98.3552 2.78629 98.0836C2.1743 97.812 1.69236 97.4334 1.34046 96.9476C0.992395 96.4618 0.795411 95.8977 0.749512 95.2551H2.21829C2.25653 95.6988 2.40571 96.066 2.6658 96.3567C2.92972 96.6435 3.26249 96.8577 3.66411 96.9992C4.06955 97.1369 4.50559 97.2058 4.97224 97.2058C5.51538 97.2058 6.00305 97.1178 6.43527 96.9419C6.86749 96.7621 7.20982 96.5135 7.46227 96.196C7.71471 95.8747 7.84093 95.4999 7.84093 95.0715C7.84093 94.6813 7.73192 94.3639 7.5139 94.1191C7.29588 93.8743 7.00901 93.6754 6.65329 93.5224C6.29757 93.3694 5.91317 93.2355 5.50008 93.1208L4.05425 92.7077C3.13627 92.4438 2.40953 92.067 1.87404 91.5774C1.33855 91.0878 1.07081 90.4471 1.07081 89.6554C1.07081 88.9975 1.24867 88.4238 1.60438 87.9342C1.96393 87.4407 2.44587 87.0583 3.05021 86.7867C3.65837 86.5113 4.3373 86.3736 5.08698 86.3736C5.84432 86.3736 6.51751 86.5094 7.10655 86.7809C7.69559 87.0487 8.16223 87.4159 8.50647 87.8825C8.85454 88.3492 9.03814 88.8789 9.05726 89.4718H7.68029ZM3.77886 83L4.97224 84.6065L6.16561 83H7.45079V83.0918L5.59187 85.4786H4.3526L2.49368 83.0918V83H3.77886Z" fill="white"/>
<path d="M21.4716 92.4093C21.4716 93.6486 21.2478 94.7196 20.8003 95.6223C20.3528 96.525 19.7389 97.2211 18.9586 97.7107C18.1783 98.2003 17.2871 98.4451 16.2849 98.4451C15.2828 98.4451 14.3916 98.2003 13.6113 97.7107C12.831 97.2211 12.2171 96.525 11.7696 95.6223C11.3221 94.7196 11.0983 93.6486 11.0983 92.4093C11.0983 91.1701 11.3221 90.0991 11.7696 89.1964C12.2171 88.2937 12.831 87.5976 13.6113 87.108C14.3916 86.6184 15.2828 86.3736 16.2849 86.3736C17.2871 86.3736 18.1783 86.6184 18.9586 87.108C19.7389 87.5976 20.3528 88.2937 20.8003 89.1964C21.2478 90.0991 21.4716 91.1701 21.4716 92.4093ZM20.0946 92.4093C20.0946 91.3919 19.9244 90.5332 19.584 89.8332C19.2474 89.1333 18.7903 88.6035 18.2127 88.244C17.639 87.8844 16.9964 87.7047 16.2849 87.7047C15.5735 87.7047 14.929 87.8844 14.3514 88.244C13.7777 88.6035 13.3206 89.1333 12.9802 89.8332C12.6436 90.5332 12.4753 91.3919 12.4753 92.4093C12.4753 93.4268 12.6436 94.2855 12.9802 94.9854C13.3206 95.6854 13.7777 96.2151 14.3514 96.5747C14.929 96.9342 15.5735 97.114 16.2849 97.114C16.9964 97.114 17.639 96.9342 18.2127 96.5747C18.7903 96.2151 19.2474 95.6854 19.584 94.9854C19.9244 94.2855 20.0946 93.4268 20.0946 92.4093Z" fill="white"/>
<path d="M23.864 98.2844V86.5342H27.8343C28.7561 86.5342 29.5096 86.7006 30.0949 87.0334C30.6839 87.3623 31.1199 87.8079 31.403 88.3702C31.686 88.9325 31.8276 89.5598 31.8276 90.2521C31.8276 90.9444 31.686 91.5736 31.403 92.1397C31.1238 92.7058 30.6915 93.1571 30.1063 93.4937C29.5211 93.8265 28.7714 93.9929 27.8573 93.9929H25.0115V92.7306H27.8114C28.4425 92.7306 28.9493 92.6216 29.3318 92.4036C29.7143 92.1856 29.9916 91.8911 30.1637 91.52C30.3397 91.1452 30.4276 90.7225 30.4276 90.2521C30.4276 89.7816 30.3397 89.3609 30.1637 88.9898C29.9916 88.6188 29.7124 88.3281 29.326 88.1178C28.9397 87.9036 28.4272 87.7965 27.7884 87.7965H25.2869V98.2844H23.864Z" fill="white"/>
<path d="M34.1196 98.2844V86.5342H41.2111V87.7965H35.5425V91.7667H40.8439V93.029H35.5425V97.0222H41.3029V98.2844H34.1196Z" fill="white"/>
<path d="M53.0932 86.5342V98.2844H51.7162L45.3133 89.0587H45.1986V98.2844H43.7757V86.5342H45.1527L51.5785 95.7829H51.6933V86.5342H53.0932Z" fill="white"/>
<path d="M60.5463 98.2844V86.0231H64.6893C65.6512 86.0231 66.4375 86.1967 67.0481 86.544C67.6628 86.8872 68.1178 87.3522 68.4132 87.939C68.7085 88.5257 68.8562 89.1803 68.8562 89.9027C68.8562 90.6251 68.7085 91.2817 68.4132 91.8724C68.1218 92.4631 67.6708 92.9341 67.0601 93.2853C66.4494 93.6326 65.6671 93.8062 64.7132 93.8062H61.7437V92.489H64.6653C65.3239 92.489 65.8527 92.3753 66.2519 92.1478C66.651 91.9203 66.9404 91.613 67.12 91.2258C67.3036 90.8346 67.3954 90.3936 67.3954 89.9027C67.3954 89.4117 67.3036 88.9727 67.12 88.5855C66.9404 88.1984 66.649 87.8951 66.2459 87.6755C65.8428 87.452 65.3079 87.3403 64.6414 87.3403H62.0311V98.2844H60.5463Z" fill="white"/>
<path d="M70.4996 98.2844H68.943L73.4452 86.0231H74.9779L79.4801 98.2844H77.9235L74.2594 87.9629H74.1637L70.4996 98.2844ZM71.0744 93.4949H77.3487V94.812H71.0744V93.4949Z" fill="white"/>
<path d="M81.3899 98.2844V86.0231H85.5329C86.4908 86.0231 87.2771 86.1868 87.8917 86.5141C88.5064 86.8374 88.9614 87.2824 89.2568 87.8492C89.5521 88.4159 89.6998 89.0605 89.6998 89.7829C89.6998 90.5054 89.5521 91.146 89.2568 91.7048C88.9614 92.2635 88.5084 92.7026 87.8977 93.0219C87.2871 93.3372 86.5068 93.4949 85.5568 93.4949H82.2041V92.1538H85.5089C86.1635 92.1538 86.6904 92.058 87.0895 91.8664C87.4926 91.6748 87.784 91.4034 87.9636 91.0522C88.1472 90.6969 88.239 90.2739 88.239 89.7829C88.239 89.292 88.1472 88.8629 87.9636 88.4957C87.78 88.1285 87.4866 87.8452 87.0835 87.6456C86.6804 87.442 86.1475 87.3403 85.485 87.3403H82.8747V98.2844H81.3899ZM87.1613 92.7764L90.1788 98.2844H88.4545L85.485 92.7764H87.1613Z" fill="white"/>
<path d="M92.1739 98.2844V86.0231H93.6587V92.1059H93.8024L99.3104 86.0231H101.25L96.1014 91.5551L101.25 98.2844H99.4541L95.1914 92.5848L93.6587 94.3091V98.2844H92.1739Z" fill="white"/>
</svg>
