<svg width="40" height="40" viewBox="0 0 40 40" fill="none" xmlns="http://www.w3.org/2000/svg">
<rect x="0.5" y="0.5" width="39" height="39" rx="19.5" stroke="white"/>
<path d="M12.5 26.8506H17.6377C17.81 26.8506 17.9748 26.9192 18.0967 27.041C18.2185 27.1628 18.287 27.3277 18.2871 27.5C18.2871 27.6724 18.2186 27.8381 18.0967 27.96C17.9749 28.0817 17.8099 28.1503 17.6377 28.1504H12.5C12.3276 28.1504 12.1619 28.0819 12.04 27.96C11.9182 27.8381 11.8496 27.6723 11.8496 27.5C11.8497 27.3279 11.9184 27.1628 12.04 27.041C12.1619 26.9191 12.3276 26.8506 12.5 26.8506ZM18.4395 9.60352C18.5598 9.59227 18.6808 9.61521 18.7891 9.66895C18.8973 9.72272 18.989 9.80548 19.0527 9.9082C19.1164 10.0108 19.1502 10.1293 19.1504 10.25C19.1517 11.4696 19.6367 12.6396 20.499 13.502C21.3074 14.3101 22.3853 14.7872 23.5215 14.8447L23.75 14.8506C23.9224 14.8506 24.0881 14.9191 24.21 15.041C24.3316 15.1628 24.4003 15.3279 24.4004 15.5V18.2549C24.3975 19.1097 24.6337 19.9486 25.083 20.6758C25.5324 21.403 26.1766 21.9903 26.9424 22.3701L29.627 23.7109C29.8598 23.8266 30.0557 24.0054 30.1924 24.2266C30.329 24.4477 30.4012 24.7029 30.4004 24.9629V26.75C30.4004 27.1212 30.2527 27.4777 29.9902 27.7402C29.7277 28.0028 29.3713 28.1504 29 28.1504H21.8809C21.7955 28.1505 21.7107 28.1332 21.6318 28.1006C21.5529 28.068 21.4813 28.0203 21.4209 27.96L10.7607 17.2959C10.622 17.1572 10.5137 16.9908 10.4434 16.8076C10.3731 16.6245 10.3413 16.4283 10.3516 16.2324C10.3618 16.0367 10.414 15.8456 10.5029 15.6709C10.5918 15.4964 10.7161 15.3421 10.8682 15.2188L10.8848 15.2051L18.1074 9.73242C18.2038 9.65946 18.3191 9.61482 18.4395 9.60352ZM11 23.8506H14.6377C14.81 23.8506 14.9748 23.9192 15.0967 24.041C15.2185 24.1628 15.287 24.3277 15.2871 24.5C15.2871 24.6724 15.2186 24.8381 15.0967 24.96C14.9749 25.0817 14.8099 25.1503 14.6377 25.1504H11C10.8276 25.1504 10.6619 25.0819 10.54 24.96C10.4182 24.8381 10.3496 24.6723 10.3496 24.5C10.3497 24.3279 10.4184 24.1628 10.54 24.041C10.6619 23.9191 10.8276 23.8506 11 23.8506ZM23.0996 16.1152L23.0127 16.1045C21.8217 15.9524 20.7051 15.4406 19.8115 14.6387C18.9181 13.8367 18.2902 12.7818 18.0107 11.6143L17.9746 11.4658L17.8525 11.5576L14.1025 14.3994L14.0117 14.4688L14.0928 14.5498L17.5859 18.04C17.7079 18.1622 17.7755 18.3283 17.7754 18.501C17.7752 18.6735 17.707 18.839 17.585 18.9609C17.4628 19.0829 17.2967 19.1515 17.124 19.1514C16.9514 19.1512 16.786 19.0821 16.6641 18.96L12.9658 15.2617L12.8965 15.3145L11.6895 16.2295L11.5986 16.2988L11.6797 16.3799L22.1201 26.8213L22.1494 26.8506H29.0996V24.9014L26.3613 23.5322L26 23.3369C25.1762 22.854 24.4808 22.1761 23.9766 21.3604C23.4001 20.4278 23.096 19.3522 23.0996 18.2559V16.1152Z" fill="white" stroke="#1C2F24" stroke-width="0.2"/>
</svg>
