<svg width="80" height="80" viewBox="0 0 80 80" fill="none" xmlns="http://www.w3.org/2000/svg">
<rect x="-0.5" y="0.5" width="79" height="79" rx="39.5" transform="matrix(-1 0 0 1 79 0)" stroke="white"/>
<path fill-rule="evenodd" clip-rule="evenodd" d="M39.7098 28.2831C33.3224 28.2831 27.8307 32.8857 24.4528 39.7007C24.4057 39.7957 24.3705 39.8667 24.3408 39.9285C24.3138 39.9848 24.297 40.0217 24.286 40.0474C24.297 40.0731 24.3138 40.11 24.3408 40.1663C24.3705 40.2281 24.4057 40.2991 24.4528 40.3941C27.8307 47.2091 33.3224 51.8117 39.7098 51.8117C46.0972 51.8117 51.5889 47.2091 54.9668 40.3941C55.0139 40.2991 55.0491 40.2281 55.0788 40.1663C55.1058 40.11 55.1226 40.0731 55.1336 40.0474C55.1226 40.0217 55.1058 39.9848 55.0788 39.9285C55.0491 39.8667 55.0139 39.7957 54.9668 39.7007C51.5889 32.8857 46.0972 28.2831 39.7098 28.2831ZM21.5112 38.2427C25.1878 30.8249 31.5882 25 39.7098 25C47.8314 25 54.2318 30.8249 57.9084 38.2427C57.92 38.2662 57.9321 38.2903 57.9444 38.3151C58.0931 38.6129 58.2847 38.9966 58.369 39.4614C58.4364 39.8331 58.4364 40.2617 58.369 40.6334C58.2847 41.0981 58.0932 41.4818 57.9445 41.7797C57.9321 41.8044 57.9201 41.8286 57.9084 41.8521C54.2318 49.2698 47.8314 55.0948 39.7098 55.0948C31.5882 55.0948 25.1878 49.2699 21.5112 41.8521C21.4995 41.8286 21.4875 41.8044 21.4751 41.7797C21.3264 41.4818 21.1349 41.0981 21.0506 40.6334C20.9831 40.2617 20.9831 39.8331 21.0506 39.4614C21.1349 38.9966 21.3264 38.6129 21.4751 38.3151C21.4875 38.2904 21.4995 38.2662 21.5112 38.2427ZM39.7098 35.9436C37.4433 35.9436 35.606 37.7809 35.606 40.0474C35.606 42.3139 37.4433 44.1512 39.7098 44.1512C41.9763 44.1512 43.8136 42.3139 43.8136 40.0474C43.8136 37.7809 41.9763 35.9436 39.7098 35.9436ZM32.3229 40.0474C32.3229 35.9677 35.6301 32.6605 39.7098 32.6605C43.7895 32.6605 47.0967 35.9677 47.0967 40.0474C47.0967 44.1271 43.7895 47.4343 39.7098 47.4343C35.6301 47.4343 32.3229 44.1271 32.3229 40.0474Z" fill="white"/>
</svg>
