<?xml version="1.0" encoding="UTF-8"?>
<svg id="_Слой_2" data-name="Слой 2" xmlns="http://www.w3.org/2000/svg" viewBox="0 0 2759.33 1056.67">
  <defs>
    <style>
      .cls-1 {
        fill: #ffd9c3;
        opacity: .5;
      }
    </style>
  </defs>
  <g id="_3_floor" data-name="3 floor">
    <g id="A">
      <polygon id="_1" data-name="1" class="cls-1" points="534.81 758.67 548.22 758.54 548.37 761.63 575.19 761.63 575.11 758.29 650.29 758.59 650.89 720.15 654.55 720.14 653.59 528.74 534.81 528.96 534.81 758.67"/>
      <polygon id="_2" data-name="2" class="cls-1" points="826.3 758.37 826.3 721.04 827.78 721.04 827.78 524 757.56 524 757.56 528.74 658.89 528.74 658.89 758.37 749.85 758.37 749.85 761.63 777.11 761.63 777.11 758.07 826.3 758.37"/>
      <polygon id="_3" data-name="3" class="cls-1" points="1007.33 783.56 1007.33 764 1004.67 764 1004.67 720.15 1007.33 720.15 1007.33 528.44 909.26 528.44 909.26 524 833.7 524 833.7 720.44 835.19 720.44 835.19 758.67 848.81 758.67 848.81 761.63 874.89 761.63 874.89 758.37 884.67 758.37 884.67 783.56 1007.33 783.56"/>
      <polygon id="_4" data-name="4" class="cls-1" points="1007.33 788.89 1007.33 1052 909.85 1052 909.85 1055.56 834.3 1055.56 834.3 819.11 848.52 819.11 848.52 815.85 876.07 815.85 876.07 819.11 884.67 819.11 884.67 788.89 1007.33 788.89"/>
      <polygon id="_5" data-name="5" class="cls-1" points="827.48 1055.56 827.48 819.11 778.3 819.11 778.3 816.44 750.44 816.44 750.44 818.81 659.48 818.81 659.48 1052.3 757.56 1052.3 757.56 1055.56 827.48 1055.56"/>
      <polygon id="_6" data-name="6" class="cls-1" points="652.67 818.81 652.67 1052.3 535.04 1052.3 535.04 818.81 548.89 818.81 548.89 816.44 576.44 816.44 576.44 818.67 652.67 818.81"/>
      <path id="_7" data-name="7" class="cls-1" d="m529.11,1052.3s.44-194.52,0-194.96-5.93,0-5.93,0v-38.22h-87.41v-2.67h-26.96v2.67h-52.74v37.33h-1.48v199.41h75.85v-3.56h98.67Z"/>
      <polygon id="_8" data-name="8" class="cls-1" points="345.11 1051.78 345.11 949.11 349.33 949.11 349.33 857.11 345.11 857.11 345.11 818.89 327.11 818.89 327.11 816.44 300 816.44 300 819.78 91.11 819.78 97.56 848.44 104 868.22 114.89 894.44 124.89 913.11 126 921.11 140.67 943.11 160.44 966.67 172.33 978.56 184.82 990.21 185.11 986.67 224.89 1014 248.11 1025.89 261.85 1032 281.33 1039.04 300.28 1044.55 322.96 1049.04 345.11 1051.78"/>
      <polygon id="_9" data-name="9" class="cls-1" points="291.33 752.89 291.33 659.33 294 659.33 294 632 291.33 632 291.33 585.78 92 585.78 92 583.33 73.33 583.33 73.33 585.78 30.67 585.78 30.67 655.11 35.33 655.11 35.11 752.89 291.33 752.89"/>
      <polygon id="_10" data-name="10" class="cls-1" points="291.11 580 291.11 534.44 294 534.44 294 507.56 291.11 507.56 291.11 414.22 195.78 414.22 195.78 415.56 34.89 415.56 34.89 512.74 30.67 512.67 30.67 575.11 72.67 575.11 72.67 578.44 92.44 578.44 92.44 580 151.56 580 151.56 575.11 195.56 575.11 195.56 580 291.11 580"/>
      <polygon id="_11" data-name="11" class="cls-1" points="291.78 409.11 291.78 312.67 294 312.67 294 284.89 291.78 284.89 291.78 238.67 31.78 238.67 31.78 309.33 35.19 309.33 35.33 404.22 73.56 404.22 73.56 410.22 152 410.22 152 404.89 196 404.89 196 408.89 291.78 409.11"/>
      <polygon id="_12" data-name="12" class="cls-1" points="344.89 233.33 344.89 56.67 206.67 29.78 206.67 26.67 140.22 13.11 87.56 3.11 66 0 53.78 .89 32 8.22 17.56 19.56 6.22 34 0 51.33 62.22 51.33 62.22 66.22 34.67 66.22 34.67 233.33 300 233.33 300 235.78 327.11 235.78 327.11 233.11 344.89 233.33"/>
      <polygon id="_13" data-name="13" class="cls-1" points="350.74 286.37 528.81 286.37 528.81 172 530.89 172 530.89 118.44 527.56 118.44 527.56 92.44 356 58.67 356 98.89 350.74 98.89 350.74 198.67 356.22 198.67 356.22 242.22 348 242.22 348 269.11 350.67 269.11 350.74 286.37"/>
      <polygon id="_14" data-name="14" class="cls-1" points="410.3 564.3 410.3 464.74 529.26 464.74 529.26 422.52 518 422.52 518 406.22 529.26 406.22 529.26 388 534.59 388.13 534.74 401 570.89 401 570.89 333.78 528.81 333.78 528.81 292.59 350.74 292.59 350.74 416.89 347.93 416.89 347.93 444.3 350.74 444.3 350.74 564.3 410.3 564.3"/>
    </g>
    <g id="B">
      <polygon id="_1-2" data-name="1" class="cls-1" points="1224.81 814.37 1224.81 936.44 1196.96 936.44 1196.96 1055.56 1122.3 1055.56 1122.3 1049.04 1116.37 1049.04 1116.37 1051.7 1024.52 1051.7 1024.52 788.89 1147.19 788.89 1147.19 814.67 1174.44 814.67 1174.44 812.3 1202 812.3 1202 814.96 1224.81 814.37"/>
      <polygon id="_2-2" data-name="2" class="cls-1" points="1257.41 738.52 1257.41 565.78 1259.19 565.78 1259.19 524 1122.3 524 1122.3 529.04 1023.93 529.04 1023.93 783.56 1147.19 783.56 1147.19 758.67 1154.89 758.67 1154.89 761.33 1182.74 761.33 1182.74 758.37 1196.67 758.37 1196.67 737.93 1257.41 738.52"/>
      <polygon id="_3-2" data-name="3" class="cls-1" points="1436.07 758.96 1436.07 528.74 1344.22 528.74 1344.22 524 1262.44 524 1262.44 738.22 1356.44 738.22 1356.44 761.78 1385.33 761.78 1385.33 758.22 1436.07 758.96"/>
      <polygon id="_4-2" data-name="4" class="cls-1" points="1481.33 758.67 1528.67 758.67 1528.67 528.67 1442.22 528.67 1442.22 758.67 1454.3 758.67 1454.3 761.78 1481.41 761.78 1481.33 758.67"/>
      <polygon id="_5-2" data-name="5" class="cls-1" points="1703.33 758.67 1703.33 524.44 1632.89 524.44 1632.89 528.67 1534.67 528.67 1534.67 758.67 1608 758.67 1608 761.78 1634.89 761.78 1634.89 758.44 1703.33 758.67"/>
      <polygon id="_6-2" data-name="6" class="cls-1" points="1882.67 783.33 1882.67 528.44 1779.78 528.44 1779.78 524.44 1708.44 524.44 1708.44 759.33 1724 759.33 1724 761.78 1751.56 761.78 1751.56 758.67 1760 758.67 1760 783.33 1882.67 783.33"/>
      <polygon id="_7-2" data-name="7" class="cls-1" points="1760 788.89 1882.67 788.89 1882.67 1052.22 1779.11 1052.22 1779.11 1056.67 1708.44 1056.67 1708.44 814.67 1724 814.67 1724 811.78 1751.56 811.78 1751.56 814.89 1760 814.89 1760 788.89"/>
      <polygon id="_8-2" data-name="8" class="cls-1" points="1534.67 814.67 1607.78 814.67 1607.78 812 1635.33 812 1635.33 814.67 1703.33 814.67 1703.33 1056.67 1632.44 1056.67 1632.44 1051.78 1534.67 1051.78 1534.67 814.67"/>
      <polygon id="_9-2" data-name="9" class="cls-1" points="1528.44 814.44 1528.44 1051.56 1431.11 1051.56 1431.11 1056.67 1356.89 1056.67 1356.89 814.44 1428.22 814.44 1428.22 812 1456 812 1456 814.44 1528.44 814.44"/>
    </g>
    <g id="C">
      <polygon id="_1-3" data-name="1" class="cls-1" points="2456 814.44 2456 935.78 2426.44 935.78 2426.44 1055.78 2356 1055.78 2356 1051.56 2254.89 1051.56 2254.89 814.44 2408 814.44 2408 812 2435.11 812 2435.11 815.11 2456 814.44"/>
      <polygon id="_2-3" data-name="2" class="cls-1" points="2173.78 812 2173.78 814.44 2249.56 814.44 2249.56 1051.56 2148.22 1051.56 2148.22 1055.78 2077.78 1055.78 2077.78 814.44 2145.78 814.44 2145.78 812 2173.78 812"/>
      <polygon id="_3-3" data-name="3" class="cls-1" points="2072.44 1056.67 2072.44 814.67 2056.44 814.67 2056.44 812 2030.22 812 2030.22 814.22 2021.33 814.22 2021.33 788.89 1898 788.89 1898 1052.22 2002 1052.22 2002 1056.67 2072.44 1056.67"/>
      <polygon id="_4-3" data-name="4" class="cls-1" points="2020.96 783.33 2020.96 758.96 2029.56 758.96 2029.56 761.63 2057.11 761.63 2057.11 758.96 2072.44 758.96 2072.44 524.44 2001.7 524.44 2001.7 528.74 1898 528.74 1898 783.33 2020.96 783.33"/>
      <polygon id="_5-3" data-name="5" class="cls-1" points="2248.81 528.74 2248.81 758.96 2173.56 758.96 2173.56 761.33 2146.89 761.33 2146.89 758.67 2077.56 758.67 2077.56 524.44 2148.37 524.44 2148.37 529.04 2248.81 528.74"/>
      <polygon id="_6-3" data-name="6" class="cls-1" points="2426.3 758.37 2426.3 524.44 2356.07 524.44 2356.07 528.44 2255.04 528.44 2255.04 758.37 2330.59 758.37 2330.59 761.33 2358.44 761.33 2358.44 758.96 2426.3 758.37"/>
      <polygon id="_7-3" data-name="7" class="cls-1" points="2580 528.22 2580 738.44 2512.89 738.44 2512.89 746.44 2485.33 746.44 2485.33 738.44 2431.78 738.44 2431.78 524.44 2486 524.44 2486 528.67 2580 528.22"/>
      <polygon id="_8-3" data-name="8" class="cls-1" points="2661.26 524.44 2661.26 552.44 2759.33 552.44 2759.33 763.41 2631.63 763.41 2631.63 758.07 2614.74 758.07 2614.74 761.33 2585.41 761.33 2585.41 524.44 2661.26 524.44"/>
      <path id="_9-3" data-name="9" class="cls-1" d="m2759.33,769.63v282.07h-102.52v4.07s-71.11,1.41-71.11,0v-240.81h11.85v-2.96h26.37v2.81h8v-45.19h127.41Z"/>
    </g>
  </g>
</svg>