<?xml version="1.0" encoding="UTF-8"?>
<svg id="_Слой_2" data-name="Слой 2" xmlns="http://www.w3.org/2000/svg" viewBox="0 0 976.93 1056.19">
  <defs>
    <style>
      .cls-1 {
        fill: #ffd9c3;
        opacity: .5;
      }
    </style>
  </defs>
  <g id="_13-15_floor" data-name="13-15 floor">
    <g id="A">
      <polygon id="_1" data-name="1" class="cls-1" points="504.41 758.67 517.81 758.54 517.96 761.63 544.78 761.63 544.7 758.29 619.88 758.59 620.48 720.15 623.15 720.14 623.17 526.63 549.52 526.63 549.41 529.08 504.41 528.96 504.41 758.67"/>
      <polygon id="_2" data-name="2" class="cls-1" points="795.89 758.37 795.89 721.04 797.37 721.04 797.37 524 727.15 524 727.15 528.74 711.3 528.74 711.37 526.37 638.33 526.37 638.41 528.74 628.48 528.74 628.48 758.37 719.44 758.37 719.44 761.63 746.7 761.63 746.7 758.07 795.89 758.37"/>
      <polygon id="_3" data-name="3" class="cls-1" points="976.93 783.56 976.93 764 974.26 764 974.26 720.15 976.93 720.15 976.93 528.44 967.22 528.44 967.22 526.37 894.26 526.3 894.26 528.44 878.85 528.44 878.85 524 802.3 524 803.3 720.44 804.78 720.44 804.78 758.67 818.41 758.67 818.41 761.63 844.48 761.63 844.48 758.37 854.26 758.37 854.26 783.56 976.93 783.56"/>
      <polygon id="_4" data-name="4" class="cls-1" points="976 788.89 976 1052 878.3 1052 878.3 1056.19 801.96 1056.19 801.96 819.11 817.19 819.11 817.19 815.85 844.74 815.85 844.74 819.11 853.33 819.11 853.33 788.89 976 788.89"/>
      <polygon id="_5" data-name="5" class="cls-1" points="797.81 1056.19 797.07 819.11 747.89 819.11 747.89 816.44 720.04 816.44 720.04 818.81 629.07 818.81 629.07 1052.3 638.19 1052.3 638.19 1053.85 711.59 1054.07 711.41 1052.3 727.15 1052.3 727.15 1056.19 797.81 1056.19"/>
      <polygon id="_6" data-name="6" class="cls-1" points="622.26 818.81 622.26 1052.3 600.3 1052.3 600.3 1053.85 527.3 1054.3 527.3 1052.3 504.63 1052.3 504.63 818.81 518.48 818.81 518.48 816.44 546.04 816.44 546.04 818.67 622.26 818.81"/>
      <path id="_7" data-name="7" class="cls-1" d="m498.7,1052.3s.44-194.52,0-194.96-5.93,0-5.93,0v-38.22h-87.41v-2.67h-26.96v2.67h-52.74v37.33h-1.48v199.41h75.85v-3.56h15.59v1.89s73.11-.11,73.11-.11v-1.78h9.96Z"/>
      <polygon id="_8" data-name="8" class="cls-1" points="314.19 819.26 314.19 856.89 318.48 856.89 318.48 949.04 314.78 949.04 314.78 1051.85 292.85 1049.19 292.33 1051.56 250.78 1041.63 251.59 1039.63 213.15 1023.85 211.89 1025.85 175.22 1004.22 176.41 1002.22 154.56 986.07 154.56 989.19 143 980 125.37 961.85 106.19 938.3 93.52 918.52 97 918.44 81.74 888.44 79.59 889.26 64.78 849.48 67.44 848.59 61.15 820.96 269.37 819.26 269.44 816.15 296.04 816.15 295.89 819.19 314.19 819.26"/>
      <polygon id="_9" data-name="9" class="cls-1" points="260.93 752.89 260.93 659.33 263.59 659.33 263.59 632 260.93 632 260.93 585.78 61.59 585.78 61.59 583.33 42.93 583.33 42.93 585.78 .26 585.78 .26 655.11 4.93 655.11 4.87 679.41 2.07 679.52 1.96 734.19 4.75 734.3 4.7 752.89 260.93 752.89"/>
      <polygon id="_10" data-name="10" class="cls-1" points="260.7 580 260.7 534.44 263.59 534.44 263.59 507.56 260.7 507.56 260.7 414.22 165.37 414.22 165.37 415.56 4.48 415.56 4.48 433.41 2.33 433.26 2.26 487.48 4.48 487.48 4.48 512.74 .26 512.67 .26 575.11 42.26 575.11 42.26 578.44 62.04 578.44 62.04 580 121.15 580 121.15 575.11 165.15 575.11 165.15 580 260.7 580"/>
      <polygon id="_11" data-name="11" class="cls-1" points="261.37 409.11 261.37 312.67 263.59 312.67 263.59 284.89 261.37 284.89 261.37 238.67 0 238.67 0 309.33 4.78 309.33 4.82 333.74 2.24 333.91 2.19 387.69 4.9 387.8 4.93 404.22 43.15 404.22 43.15 410.22 121.59 410.22 121.59 404.89 165.59 404.89 165.59 408.89 261.37 409.11"/>
      <polygon id="_12" data-name="12" class="cls-1" points="314.48 233.33 314.48 56.67 308.65 55.53 309.07 53.52 255.96 43.19 255.41 45.15 231.31 40.45 231.74 38.63 189.19 30.19 188.62 32.12 175.26 29.52 175.26 25.67 109.81 13.11 57.15 3.11 39.15 0 26.26 2.67 15.93 9 6.15 20.44 1.44 34.44 1.44 51.33 31.81 51.33 31.81 66.22 4.26 66.22 4.26 156.96 2.07 156.85 2.19 199.85 4.26 199.85 4.26 233.33 269.59 233.33 269.59 235.78 296.7 235.78 296.7 233.11 314.48 233.33"/>
      <polygon id="_13" data-name="13" class="cls-1" points="320.33 286.37 498.41 286.37 498.41 282.74 500.48 282.63 500.48 242.41 498.41 242.52 498.41 172 500.48 172 500.48 118.44 497.15 118.44 497.15 92.44 478.49 88.77 478.74 87.02 426.07 76.52 425.47 78.33 398.31 72.98 398.63 71.24 356.3 62.85 355.96 64.65 325.59 58.67 325.59 98.89 320.33 98.89 320.33 198.67 325.81 198.67 325.81 242.22 317.59 242.22 317.59 269.11 320.26 269.11 320.33 286.37"/>
      <polygon id="_14" data-name="14" class="cls-1" points="379.89 562.3 379.89 464.74 500.85 464.74 500.85 422.52 487.59 422.52 487.59 406.22 498.85 406.22 498.85 388 504.19 388.24 504.19 400.78 540.07 400.85 540.07 333.74 498.41 333.78 498.41 292.59 320.33 292.59 320.33 416.89 317.52 416.89 317.52 444.3 320.33 444.3 320.33 562.3 379.89 562.3"/>
    </g>
  </g>
</svg>