<?xml version="1.0" encoding="UTF-8"?>
<svg id="_Слой_2" data-name="Слой 2" xmlns="http://www.w3.org/2000/svg" viewBox="0 0 2729.27 1056.85">
  <defs>
    <style>
      .cls-1 {
        fill: #ffd9c3;
        opacity: .5;
      }
    </style>
  </defs>
  <g id="_9-10_floor" data-name="9-10 floor">
    <g id="A">
      <polygon id="_1" data-name="1" class="cls-1" points="504.15 758.67 517.55 758.54 517.7 761.63 544.52 761.63 544.44 758.29 619.62 758.59 620.22 720.15 623.89 720.14 622.93 528.74 504.15 528.96 504.15 758.67"/>
      <polygon id="_2" data-name="2" class="cls-1" points="795.63 758.37 795.63 721.04 797.11 721.04 797.11 524 726.89 524 726.89 528.74 628.22 528.74 628.22 758.37 719.19 758.37 719.19 761.63 746.44 761.63 746.44 758.07 795.63 758.37"/>
      <polygon id="_3" data-name="3" class="cls-1" points="976.67 783.56 976.67 764 974 764 974 720.15 976.67 720.15 976.67 528.44 878.59 528.44 878.59 524 803.04 524 803.04 720.44 804.52 720.44 804.52 758.67 818.15 758.67 818.15 761.63 844.22 761.63 844.22 758.37 854 758.37 854 783.56 976.67 783.56"/>
      <polygon id="_4" data-name="4" class="cls-1" points="976.67 788.89 976.67 1052 879.19 1052 879.19 1055.56 803.63 1055.56 803.63 819.11 817.85 819.11 817.85 815.85 845.41 815.85 845.41 819.11 854 819.11 854 788.89 976.67 788.89"/>
      <polygon id="_5" data-name="5" class="cls-1" points="796.81 1055.56 796.81 819.11 747.63 819.11 747.63 816.44 719.78 816.44 719.78 818.81 628.81 818.81 628.81 1052.3 726.89 1052.3 726.89 1055.56 796.81 1055.56"/>
      <polygon id="_6" data-name="6" class="cls-1" points="622 818.81 622 1052.3 504.37 1052.3 504.37 818.81 518.22 818.81 518.22 816.44 545.78 816.44 545.78 818.67 622 818.81"/>
      <path id="_7" data-name="7" class="cls-1" d="m498.44,1052.3s.44-194.52,0-194.96-5.93,0-5.93,0v-38.22h-87.41v-2.67h-26.96v2.67h-52.74v37.33h-1.48v199.41h75.85v-3.56h98.67Z"/>
      <polygon id="_8" data-name="8" class="cls-1" points="313.93 819.26 313.93 856.89 318.22 856.89 318.22 949.04 314.52 949.04 314.52 1051.85 292.59 1049.19 292.07 1051.56 250.52 1041.63 251.33 1039.63 212.89 1023.85 211.63 1025.85 174.96 1004.22 176.15 1002.22 154.3 986.07 154.3 989.19 142.74 980 125.11 961.85 105.93 938.3 93.26 918.52 96.74 918.44 81.48 888.44 79.33 889.26 64.52 849.48 67.19 848.59 60.89 820.96 269.11 819.26 269.19 816.15 295.78 816.15 295.63 819.19 313.93 819.26"/>
      <polygon id="_9" data-name="9" class="cls-1" points="260.67 752.89 260.67 659.33 263.33 659.33 263.33 632 260.67 632 260.67 585.78 61.33 585.78 61.33 583.33 42.67 583.33 42.67 585.78 0 585.78 0 655.11 4.67 655.11 4.44 752.89 260.67 752.89"/>
      <polygon id="_10" data-name="10" class="cls-1" points="260.44 580 260.44 534.44 263.33 534.44 263.33 507.56 260.44 507.56 260.44 414.22 165.11 414.22 165.11 415.56 4.22 415.56 4.22 512.74 0 512.67 0 575.11 42 575.11 42 578.44 61.78 578.44 61.78 580 120.89 580 120.89 575.11 164.89 575.11 164.89 580 260.44 580"/>
      <polygon id="_11" data-name="11" class="cls-1" points="261.11 409.11 261.11 312.67 263.33 312.67 263.33 284.89 261.11 284.89 261.11 238.67 1.11 238.67 1.11 309.33 4.52 309.33 4.67 404.22 42.89 404.22 42.89 410.22 121.33 410.22 121.33 404.89 165.33 404.89 165.33 408.89 261.11 409.11"/>
      <polygon id="_12" data-name="12" class="cls-1" points="314.22 233.33 314.22 56.67 176 29.78 176 26.67 109.56 13.11 56.89 3.11 38.89 0 26 2.67 15.67 9 5.89 20.44 1.19 34.44 1.19 51.33 31.56 51.33 31.56 66.22 4 66.22 4 233.33 269.33 233.33 269.33 235.78 296.44 235.78 296.44 233.11 314.22 233.33"/>
      <polygon id="_13" data-name="13" class="cls-1" points="320.07 286.37 498.15 286.37 498.15 172 500.22 172 500.22 118.44 496.89 118.44 496.89 92.44 325.33 58.67 325.33 98.89 320.07 98.89 320.07 198.67 325.56 198.67 325.56 242.22 317.33 242.22 317.33 269.11 320 269.11 320.07 286.37"/>
      <polygon id="_14" data-name="14" class="cls-1" points="379.63 564.3 379.63 464.74 498.59 464.74 498.59 422.52 487.33 422.52 487.33 406.22 498.59 406.22 498.59 388 503.93 388.24 503.93 400.78 539.81 400.85 539.81 333.74 498.15 333.78 498.15 292.59 320.07 292.59 320.07 416.89 317.26 416.89 317.26 444.3 320.07 444.3 320.07 564.3 379.63 564.3"/>
    </g>
    <g id="B">
      <polygon id="_1-2" data-name="1" class="cls-1" points="1194.46 814.22 1194.46 936.3 1166.61 936.3 1166.61 1055.41 1091.94 1055.41 1091.94 1048.89 1086.02 1048.89 1086.02 1051.56 994.17 1051.56 994.17 788.74 1116.83 788.74 1116.83 814.52 1144.09 814.52 1144.09 812.15 1171.65 812.15 1171.65 814.81 1194.46 814.22"/>
      <polygon id="_2-2" data-name="2" class="cls-1" points="1227.06 738.37 1227.06 565.63 1228.83 565.63 1228.83 523.85 1091.94 523.85 1091.94 528.89 993.57 528.89 993.57 783.41 1116.83 783.41 1116.83 758.52 1124.54 758.52 1124.54 761.19 1152.39 761.19 1152.39 758.22 1166.31 758.22 1166.31 737.78 1227.06 738.37"/>
      <polygon id="_3-2" data-name="3" class="cls-1" points="1405.72 758.81 1405.72 528.59 1313.87 528.59 1313.87 523.85 1232.09 523.85 1232.09 738.07 1326.09 738.07 1326.09 761.63 1354.98 761.63 1354.98 758.07 1405.72 758.81"/>
      <polygon id="_4-2" data-name="4" class="cls-1" points="1450.98 758.52 1498.31 758.52 1498.31 528.52 1411.87 528.52 1411.87 758.52 1423.94 758.52 1423.94 761.63 1451.06 761.63 1450.98 758.52"/>
      <polygon id="_5-2" data-name="5" class="cls-1" points="1672.98 758.52 1672.98 524.3 1602.54 524.3 1602.54 528.52 1504.31 528.52 1504.31 758.52 1577.65 758.52 1577.65 761.63 1604.54 761.63 1604.54 758.3 1672.98 758.52"/>
      <polygon id="_6-2" data-name="6" class="cls-1" points="1852.31 783.19 1852.31 528.3 1749.43 528.3 1749.43 524.3 1678.09 524.3 1678.09 759.19 1693.65 759.19 1693.65 761.63 1721.2 761.63 1721.2 758.52 1729.65 758.52 1729.65 783.19 1852.31 783.19"/>
      <polygon id="_7-2" data-name="7" class="cls-1" points="1729.65 788.74 1852.31 788.74 1852.31 1052.07 1748.76 1052.07 1748.76 1056.52 1678.09 1056.52 1678.09 814.52 1693.65 814.52 1693.65 811.63 1721.2 811.63 1721.2 814.74 1729.65 814.74 1729.65 788.74"/>
      <polygon id="_8-2" data-name="8" class="cls-1" points="1504.31 814.52 1577.43 814.52 1577.43 811.85 1604.98 811.85 1604.98 814.52 1672.98 814.52 1672.98 1056.52 1602.09 1056.52 1602.09 1051.63 1504.31 1051.63 1504.31 814.52"/>
      <polygon id="_9-2" data-name="9" class="cls-1" points="1498.09 814.3 1498.09 1051.41 1400.76 1051.41 1400.76 1056.52 1326.54 1056.52 1326.54 814.3 1397.87 814.3 1397.87 811.85 1425.65 811.85 1425.65 814.3 1498.09 814.3"/>
    </g>
    <g id="C">
      <polygon id="_1-3" data-name="1" class="cls-1" points="2425.94 814.63 2425.94 935.96 2396.38 935.96 2396.38 1055.96 2325.94 1055.96 2325.94 1051.74 2224.82 1051.74 2224.82 814.63 2377.94 814.63 2377.94 812.19 2405.05 812.19 2405.05 815.3 2425.94 814.63"/>
      <polygon id="_2-3" data-name="2" class="cls-1" points="2143.71 812.19 2143.71 814.63 2219.49 814.63 2219.49 1051.74 2118.16 1051.74 2118.16 1055.96 2047.71 1055.96 2047.71 814.63 2115.71 814.63 2115.71 812.19 2143.71 812.19"/>
      <polygon id="_3-3" data-name="3" class="cls-1" points="2042.38 1056.85 2042.38 814.85 2026.38 814.85 2026.38 812.19 2000.16 812.19 2000.16 814.41 1991.27 814.41 1991.27 789.07 1867.94 789.07 1867.94 1052.41 1971.94 1052.41 1971.94 1056.85 2042.38 1056.85"/>
      <polygon id="_4-3" data-name="4" class="cls-1" points="1990.9 783.52 1990.9 759.15 1999.49 759.15 1999.49 761.81 2027.05 761.81 2027.05 759.15 2042.38 759.15 2042.38 524.63 1971.64 524.63 1971.64 528.93 1867.94 528.93 1867.94 783.52 1990.9 783.52"/>
      <polygon id="_5-3" data-name="5" class="cls-1" points="2218.75 528.93 2218.75 759.15 2143.49 759.15 2143.49 761.52 2116.82 761.52 2116.82 758.85 2047.49 758.85 2047.49 524.63 2118.31 524.63 2118.31 529.22 2218.75 528.93"/>
      <polygon id="_6-3" data-name="6" class="cls-1" points="2396.23 758.56 2396.23 524.63 2326.01 524.63 2326.01 528.63 2224.97 528.63 2224.97 758.56 2300.53 758.56 2300.53 761.52 2328.38 761.52 2328.38 759.15 2396.23 758.56"/>
      <polygon id="_7-3" data-name="7" class="cls-1" points="2549.94 528.41 2549.94 738.63 2482.82 738.63 2482.82 746.63 2455.27 746.63 2455.27 738.63 2401.71 738.63 2401.71 524.63 2455.94 524.63 2455.94 528.85 2549.94 528.41"/>
      <polygon id="_8-3" data-name="8" class="cls-1" points="2631.19 524.63 2631.19 552.63 2729.27 552.63 2729.27 763.59 2601.56 763.59 2601.56 758.26 2584.68 758.26 2584.68 761.52 2555.34 761.52 2555.34 524.63 2631.19 524.63"/>
      <path id="_9-3" data-name="9" class="cls-1" d="m2729.27,769.81v282.07h-102.52v4.07s-71.11,1.41-71.11,0v-240.81h11.85v-2.96h26.37v2.81h8v-45.19h127.41Z"/>
    </g>
  </g>
</svg>