<svg width="40" height="40" viewBox="0 0 40 40" fill="none" xmlns="http://www.w3.org/2000/svg">
<rect x="0.5" y="0.5" width="39" height="39" rx="19.5" stroke="white"/>
<g clip-path="url(#clip0_1015_606)">
<path d="M32 29.36V28H29.2V26.96L29.6 26.56V25.6H23.64L23.96 22.24L24.7199 21.7199C24.96 21.56 25.16 21.2801 25.24 20.96L25.36 20.4H26.4C27.0801 20.4 27.6 19.8801 27.6 19.2V18.6801L27.9199 18.8H28C28.6801 18.8 29.2 18.2801 29.2 17.6V13.76L29.8801 13.0801L29.3199 12.5199L28.64 13.2H27.1199C26.8 13.2 26.4801 13.3199 26.2801 13.56L22.64 17.2H22.4C22.16 17.2 22 17.04 22 16.8V16.56L25.36 12.8H26V12H22.5199L21.2801 11.0801L21.6 10.4801V9.2C21.6 8.51992 21.0801 8 20.4 8H19.6C19.0801 8 18.6 8.35996 18.44 8.88008L17.1199 9.2L17.2801 10L18.4 9.71992V10.5199L18.6801 11.0801L17.6 11.8L17.2 15.4L15.4 16.76L15.8 17.2H14.8C13.6801 17.2 12.8 18.0801 12.8 19.2V20.5199C12.8 20.8 12.9199 21.0801 13.0801 21.3199L13.2 21.44V22.4801L13.8801 25.64H10.4V26.6L10.8 27V28H8V29.36L8.4 29.76V31.2H8V32H32V31.2H31.6V29.76L32 29.36ZM26.8 19.2C26.8 19.44 26.64 19.6 26.4 19.6H25.56L25.8801 18.1199L26.8 18.44V19.2ZM26.84 14.1199C26.9199 14.04 27 14 27.1199 14H28.4V17.6C28.4 17.8 28.24 17.96 28.04 18L27.6 17.84V15.6H26.8V17.56L26.1199 17.3199C25.9199 17.24 25.6801 17.2801 25.4801 17.36C25.2801 17.4801 25.1199 17.64 25.0801 17.8801L24.76 19.6H23.8801L23.04 17.96L26.84 14.1199ZM22 15.36V14.1199L23 12.8H24.3199L22 15.36ZM19.2 9.2C19.2 8.95996 19.36 8.8 19.6 8.8H20.4C20.64 8.8 20.8 8.95996 20.8 9.2V10.3199L20.56 10.8H19.44L19.2 10.3199V9.2ZM17.96 15.8L18.36 12.2L19.3199 11.56H20.6801L22.1199 12.64L21.24 13.84V16.8C21.24 17.36 21.64 17.84 22.16 17.96L23.36 20.4H24.56L24.4801 20.8C24.44 20.9199 24.4 21 24.3199 21.04L23.24 21.76L22.84 25.6H22V22.8C22 22.2 21.56 21.7199 21 21.6L20 20.56L20.84 19.7199C21.3199 19.24 21.3199 18.4801 20.84 18.04C20.8 18 20.8 17.96 20.76 17.9199L19.84 17.2L20.4 16.5199V13.2H19.6V16.24L17.9199 18.2801L16.6 16.84L17.96 15.8ZM17.9199 25.6L17.6 23.96V22.8C17.6 22.56 17.76 22.4 18 22.4H20.8C21.04 22.4 21.2 22.56 21.2 22.8V25.6H17.9199ZM19.3199 17.84L20.24 18.56C20.4 18.6801 20.44 18.96 20.3199 19.1199C20.3199 19.1199 20.3199 19.16 20.2801 19.16L19.4801 19.96L18.4801 18.8801L19.3199 17.84ZM13.6 19.2C13.6 18.5199 14.1199 18 14.8 18H16.56L19.8801 21.6H18C17.64 21.6 17.2801 21.76 17.04 22.0801L16.76 21.8C16.5199 21.56 16.4 21.2801 16.4 20.96V19.6H15.6V20.9199C15.6 21.44 15.8 21.96 16.2 22.3199L16.8 22.9199V24L17.1199 25.6H16V23.8801C16 23.6 15.8801 23.3199 15.7199 23.0801L13.7199 20.7199C13.64 20.64 13.64 20.56 13.64 20.44V19.2H13.6ZM14 22.4L15.0801 23.64C15.16 23.7199 15.16 23.8 15.16 23.9199V25.6H14.6801L14 22.4ZM11.36 26.4H28.64L28.4 26.64V28H11.6V26.64L11.36 26.4ZM9.2 31.2V29.44L8.8 29.04V28.8H31.2V29.04L30.8 29.44V31.2H9.2Z" fill="white"/>
</g>
<defs>
<clipPath id="clip0_1015_606">
<rect width="24" height="24" fill="white" transform="translate(8 8)"/>
</clipPath>
</defs>
</svg>
