<svg width="40" height="40" viewBox="0 0 40 40" fill="none" xmlns="http://www.w3.org/2000/svg">
<circle cx="20" cy="20" r="20" fill="#FFD9C3"/>
<g clip-path="url(#clip0_3029_818)">
<path d="M27.4402 18.439L22.5056 20.7798C21.7238 21.1495 20.8695 21.3413 20.0046 21.3413C19.248 21.3413 18.4995 21.194 17.8005 20.9097L17.5037 20.7798L12.5691 18.439L12.3542 18.3374V23.7495C12.3542 24.6042 12.6356 25.3442 13.2107 25.7603V25.7612C14.3157 26.5716 16.4619 27.6499 20.0046 27.6499C23.5471 27.6499 25.6864 26.564 26.7966 25.7622C27.3749 25.3491 27.6541 24.6119 27.6541 23.7495V18.3374L27.4402 18.439ZM20.0046 10.8687C19.3184 10.8687 18.6404 11.0202 18.0203 11.314L9.44019 15.3647L9.15308 15.4995L9.44019 15.6353L18.0203 19.686V19.6851C18.6405 19.9789 19.3184 20.1313 20.0046 20.1313C20.6909 20.1313 21.3688 19.9788 21.989 19.6851V19.686L30.5681 15.6353L30.8562 15.4995L30.5681 15.3647L21.989 11.314C21.3688 11.0202 20.6909 10.8687 20.0046 10.8687ZM11.1541 17.7798L11.0681 17.7388L8.92358 16.7261C8.69214 16.6172 8.49627 16.4449 8.35913 16.229C8.22204 16.013 8.14924 15.7622 8.14917 15.5063C8.14917 15.2505 8.22202 14.9997 8.35913 14.7837C8.49629 14.5676 8.69199 14.3946 8.92358 14.2856L8.93335 14.2808L8.94214 14.2739L17.5125 10.23C18.2943 9.86025 19.1486 9.66847 20.0134 9.66846C20.7701 9.66846 21.5185 9.81482 22.2175 10.0991L22.5144 10.23L31.0945 14.2798C31.3254 14.3892 31.5203 14.5619 31.657 14.7778C31.7936 14.9938 31.8669 15.244 31.8669 15.4995V23.7495C31.8669 23.9086 31.8036 24.0618 31.6912 24.1743C31.5786 24.2868 31.4255 24.3501 31.2664 24.3501C31.1074 24.3501 30.955 24.2867 30.8425 24.1743C30.73 24.0618 30.6667 23.9086 30.6667 23.7495V16.9282L30.4519 17.0298L28.9519 17.7388L28.8669 17.7798V23.7544C28.8669 24.8518 28.5137 26.0289 27.5125 26.7524C26.2011 27.6879 23.8167 28.854 20.0105 28.854C16.2032 28.854 13.812 27.6947 12.5076 26.7524C11.5068 26.0258 11.1541 24.8396 11.1541 23.7544V17.7798Z" fill="#1C2F24" stroke="#FFD9C2" stroke-width="0.3"/>
</g>
<defs>
<clipPath id="clip0_3029_818">
<rect width="24" height="24" fill="white" transform="translate(8 8)"/>
</clipPath>
</defs>
</svg>
