<svg width="40" height="40" viewBox="0 0 40 40" fill="none" xmlns="http://www.w3.org/2000/svg">
<rect x="0.5" y="0.5" width="39" height="39" rx="19.5" stroke="white"/>
<path d="M20 30C22.6522 30 25.1957 28.9464 27.0711 27.0711C28.9464 25.1957 30 22.6522 30 20C30 17.3478 28.9464 14.8043 27.0711 12.9289C25.1957 11.0536 22.6522 10 20 10C17.3478 10 14.8043 11.0536 12.9289 12.9289C11.0536 14.8043 10 17.3478 10 20C10 22.6522 11.0536 25.1957 12.9289 27.0711C14.8043 28.9464 17.3478 30 20 30Z" stroke="white" stroke-width="1.2" stroke-linecap="round" stroke-linejoin="round"/>
<path d="M25.0135 18.8863V21.1136C25.0135 21.2616 24.9547 21.4035 24.8501 21.5081C24.7455 21.6127 24.6036 21.6715 24.4556 21.6715H21.6714V24.4557C21.6714 24.6037 21.6126 24.7456 21.508 24.8502C21.4034 24.9548 21.2615 25.0136 21.1135 25.0136H18.8861C18.7382 25.0136 18.5963 24.9548 18.4916 24.8502C18.387 24.7456 18.3282 24.6037 18.3282 24.4557V21.6715H15.5451C15.3971 21.6715 15.2552 21.6127 15.1506 21.5081C15.046 21.4035 14.9872 21.2616 14.9872 21.1136V18.8863C14.9872 18.7383 15.046 18.5964 15.1506 18.4918C15.2552 18.3871 15.3971 18.3284 15.5451 18.3284H18.3293V15.5452C18.3293 15.3972 18.3881 15.2553 18.4927 15.1507C18.5973 15.0461 18.7392 14.9873 18.8872 14.9873H21.1146C21.2625 14.9873 21.4044 15.0461 21.509 15.1507C21.6137 15.2553 21.6724 15.3972 21.6724 15.5452V18.3294H24.4567C24.5299 18.3294 24.6025 18.3438 24.6702 18.3719C24.7378 18.3999 24.7993 18.441 24.8511 18.4928C24.903 18.5446 24.944 18.6061 24.9721 18.6738C25.0001 18.7415 25.0146 18.814 25.0146 18.8873" stroke="white" stroke-width="1.2" stroke-linecap="round" stroke-linejoin="round"/>
</svg>
