<svg width="20" height="20" viewBox="0 0 20 20" fill="none" xmlns="http://www.w3.org/2000/svg">
<path d="M15.5689 6.52697L14.9503 5.90834C13.7786 4.73644 12.2292 4.01821 10.5778 3.88143C8.92629 3.74466 7.27985 4.1982 5.93138 5.16138C4.58291 6.12456 3.61987 7.5349 3.21362 9.14146C2.80737 10.748 2.98424 12.4466 3.71278 13.935C4.44132 15.4234 5.67427 16.6051 7.19226 17.2697C8.71024 17.9344 10.4148 18.039 12.0027 17.5649C13.5905 17.0908 14.9587 16.0688 15.8638 14.6806C16.7688 13.2925 17.1521 11.6283 16.9453 9.98409M15.5689 6.52697L11.8563 6.52784M15.5689 6.52697V2.81435" stroke="#1C2F24" stroke-width="1.2" stroke-linecap="round" stroke-linejoin="round"/>
</svg>
