<svg width="40" height="40" viewBox="0 0 40 40" fill="none" xmlns="http://www.w3.org/2000/svg">
<rect x="0.5" y="0.5" width="39" height="39" rx="19.5" stroke="white"/>
<path d="M20.0068 9.04492C20.1501 9.04492 20.2914 9.08043 20.4316 9.15137C20.5693 9.22103 20.6922 9.33015 20.7979 9.48242V9.4834L25.1758 16.1582C25.2931 16.3299 25.3562 16.5034 25.3672 16.6777C25.3781 16.8519 25.3369 17.031 25.2422 17.2148C25.1474 17.3987 25.0283 17.5342 24.8857 17.624C24.743 17.7139 24.5737 17.7597 24.377 17.7598H23.7959L23.8398 17.8291L27.7803 24.082C27.9979 24.4226 28.0122 24.7716 27.8223 25.1348C27.7268 25.318 27.6085 25.4537 27.4688 25.543C27.3294 25.6319 27.1658 25.6767 26.9766 25.6768H21.1846V30.0371C21.1845 30.2991 21.1012 30.5167 20.9355 30.6924C20.77 30.8677 20.5661 30.9551 20.3213 30.9551H19.7754C19.5031 30.9551 19.2766 30.8579 19.0928 30.6631C18.9089 30.468 18.8164 30.2257 18.8164 29.9336V25.6768H13.0234C12.8342 25.6767 12.6706 25.6319 12.5312 25.543C12.3915 25.4537 12.2732 25.318 12.1777 25.1348C11.9878 24.7716 12.0021 24.4226 12.2197 24.0811L16.1631 17.8291L16.2061 17.7598H15.624C15.4274 17.7597 15.2589 17.7138 15.1162 17.624C14.9734 17.5342 14.8537 17.3989 14.7588 17.2148C14.6641 17.031 14.6236 16.8519 14.6348 16.6777C14.646 16.5035 14.7084 16.3299 14.8262 16.1582H14.8271L19.2021 9.4834L19.2031 9.48438C19.3071 9.33183 19.4305 9.22135 19.5732 9.15137C19.7188 9.08015 19.8635 9.04492 20.0068 9.04492ZM19.9629 10.5234L16.0439 16.4609L15.9971 16.5303H18.3643L13.4297 24.3789L13.3867 24.4473H26.6143L26.5713 24.3789L21.6367 16.5303H24.0039L23.958 16.4609L20.0381 10.5234L20.001 10.4658L19.9629 10.5234Z" fill="white" stroke="white" stroke-width="0.09"/>
</svg>
