<svg width="71" height="82" viewBox="0 0 71 82" fill="none" xmlns="http://www.w3.org/2000/svg">
<g clip-path="url(#clip0_156_906)">
<path d="M34.7961 78.8379L35.3054 79.8565L35.8148 78.8379L40.3983 69.6708C57.1681 67.207 70.0416 52.7596 70.0416 35.3054C70.0416 16.1212 54.4897 0.569336 35.3054 0.569336C16.1212 0.569336 0.569336 16.1212 0.569336 35.3054C0.569336 52.7596 13.4427 67.207 30.2126 69.6708L34.7961 78.8379Z" fill="#FAF7F2"/>
<path d="M30.6564 21.6387H24.0557V47.8331H30.6564V21.6387Z" fill="#07412E"/>
<path d="M42.4887 27.1519V34.0847H39.6157V47.832H46.2165V27.1519H42.4887Z" fill="#07412E"/>
<path d="M34.7094 34.0847H31.8364V47.832H38.4372V27.1519H34.7094V34.0847Z" fill="#07412E"/>
</g>
<defs>
<clipPath id="clip0_156_906">
<rect width="70.6111" height="82" fill="white"/>
</clipPath>
</defs>
</svg>
